<?xml version="1.0" encoding="UTF-8" standalone="no"?>
<svg
   xmlns:dc="http://purl.org/dc/elements/1.1/"
   xmlns:cc="http://creativecommons.org/ns#"
   xmlns:rdf="http://www.w3.org/1999/02/22-rdf-syntax-ns#"
   xmlns:svg="http://www.w3.org/2000/svg"
   xmlns="http://www.w3.org/2000/svg"
   id="svg1147"
   version="1.1"
   viewBox="0 0 210 140"
   height="140mm"
   width="210mm">
  <defs
     id="defs1141" />
  <metadata
     id="metadata1144">
    <rdf:RDF>
      <cc:Work
         rdf:about="">
        <dc:format>image/svg+xml</dc:format>
        <dc:type
           rdf:resource="http://purl.org/dc/dcmitype/StillImage" />
        <dc:title></dc:title>
      </cc:Work>
    </rdf:RDF>
  </metadata>
  <g
     transform="translate(0,-157)"
     id="layer1">
    <path
       id="path260"
       style="fill:#000000;fill-opacity:1;fill-rule:nonzero;stroke:none;stroke-width:5.51908445"
       d="m 186.44719,286.30102 c -3.86333,0 -7.1858,-1.38457 -9.96191,-4.16679 l -70.41249,-70.64435 -70.407055,70.64435 c -2.781599,2.7816 -6.17572,4.16679 -10.193709,4.16679 -4.017866,0 -7.334844,-1.38457 -9.96191,-4.16679 -2.621577,-2.7816 -4.006889,-6.1759 -4.166972,-10.19377 -0.15663,-4.01238 1.235958,-7.33497 4.166972,-9.95636 l 90.562674,-90.331 90.56262,90.331 c 2.78166,2.93052 4.17246,6.25299 4.17246,9.95636 0,3.70874 -1.3908,7.10298 -4.17246,10.19377 -2.77611,2.7816 -6.17042,4.16679 -10.18822,4.16679" />
  </g>
</svg>
