<?xml version="1.0" encoding="UTF-8" standalone="no"?>
<!-- Created with Inkscape (http://www.inkscape.org/) -->

<svg
   xmlns:dc="http://purl.org/dc/elements/1.1/"
   xmlns:cc="http://creativecommons.org/ns#"
   xmlns:rdf="http://www.w3.org/1999/02/22-rdf-syntax-ns#"
   xmlns:svg="http://www.w3.org/2000/svg"
   xmlns="http://www.w3.org/2000/svg"
   xmlns:sodipodi="http://sodipodi.sourceforge.net/DTD/sodipodi-0.dtd"
   xmlns:inkscape="http://www.inkscape.org/namespaces/inkscape"
   width="297mm"
   height="116mm"
   viewBox="0 0 297 116"
   version="1.1"
   id="svg214"
   inkscape:version="0.92.3 (2405546, 2018-03-11)"
   sodipodi:docname="dibujo.svg">
  <defs
     id="defs208" />
  <sodipodi:namedview
     id="base"
     pagecolor="#ffffff"
     bordercolor="#666666"
     borderopacity="1.0"
     inkscape:pageopacity="0.0"
     inkscape:pageshadow="2"
     inkscape:zoom="0.49497475"
     inkscape:cx="622.87284"
     inkscape:cy="610.22028"
     inkscape:document-units="mm"
     inkscape:current-layer="layer1"
     showgrid="false"
     inkscape:window-width="1853"
     inkscape:window-height="1025"
     inkscape:window-x="67"
     inkscape:window-y="27"
     inkscape:window-maximized="1"
     height="170mm"
     showguides="true"
     inkscape:guide-bbox="true">
    <sodipodi:guide
       position="134.70385,113.85682"
       orientation="0,1"
       id="guide824"
       inkscape:locked="false" />
  </sodipodi:namedview>
  <metadata
     id="metadata211">
    <rdf:RDF>
      <cc:Work
         rdf:about="">
        <dc:format>image/svg+xml</dc:format>
        <dc:type
           rdf:resource="http://purl.org/dc/dcmitype/StillImage" />
        <dc:title></dc:title>
      </cc:Work>
    </rdf:RDF>
  </metadata>
  <g
     inkscape:label="Capa 1"
     inkscape:groupmode="layer"
     id="layer1"
     transform="translate(0,-181)">
    <path
       style="fill:#000000;fill-opacity:1;stroke:none;stroke-width:0.66758841px;stroke-linecap:butt;stroke-linejoin:miter;stroke-opacity:1"
       d="m 107.90407,293.27386 h 7.75521 v -35.40601 c 0,0 3.34355,-11.84635 14.97642,-11.84635 11.63281,0 12.69114,11.84635 12.69114,11.84635 v 35.40601 h 6.93565 v -35.40601 c 0,0 -0.0702,-18.4779 -19.62679,-18.4779 -8.42958,0 -14.97642,6.63155 -14.97642,6.63155 v -63.37658 l -7.75521,10.18596 z"
       id="path177"
       inkscape:connector-curvature="0"
       sodipodi:nodetypes="cccsccccscccc" />
    <path
       inkscape:connector-curvature="0"
       style="fill:#000000;fill-opacity:1;stroke:none;stroke-width:0.66758841px;stroke-linecap:butt;stroke-linejoin:miter;stroke-opacity:1"
       d="M 26.590241,187.12833 2.6457268,293.27358 H 8.972169 l 5.870753,-23.31213 h 33.593223 l 6.560504,23.31213 h 7.360008 L 34.302718,187.12833 Z m 3.075867,11.9201 h 1.432965 L 47.11922,264.22956 H 16.080312 Z"
       id="path139"
       sodipodi:nodetypes="cccccccccccccc" />
    <path
       style="fill:#000000;fill-opacity:1;stroke:none;stroke-width:0.66758841px;stroke-linecap:butt;stroke-linejoin:miter;stroke-opacity:1"
       d="m 54.997285,208.84707 6.30122,-6.57508 h 9.536975 v -9.44111 l 6.795096,-10.18596 v 19.62707 H 99.80048 l -6.314679,6.57508 H 77.630576 v 68.78534 c 0,0 8e-6,8.17671 6.659488,8.17671 1.685916,-0.0843 15.510416,0 15.510416,0 l -6.314679,7.46474 c 0,0 -7.256813,0 -11.556015,0 -4.299202,0 -11.094306,-2.23843 -11.094306,-15.64145 v -68.78534 z"
       id="path152"
       inkscape:connector-curvature="0"
       sodipodi:nodetypes="ccccccccccccczscc" />
    <path
       style="fill:#000000;fill-opacity:1;stroke:none;stroke-width:0.66758841px;stroke-linecap:butt;stroke-linejoin:miter;stroke-opacity:1"
       d="m 179.74868,239.39061 c -12.81531,0 -22.5351,8.57415 -22.5351,26.4884 v 6.41248 c 0,6.85195 6.08376,20.98209 22.5351,20.98209 16.45126,0 22.17255,-7.46471 22.17255,-7.46471 l -5.72144,-4.80482 c 0,0 -3.03973,4.80482 -16.45111,4.80482 -16.45134,0 -15.11727,-18.51777 -15.11727,-18.51777 h 23.93804 c 8.82171,0 13.35178,1.33529 13.35178,-10.75836 0,-12.09365 -8.79887,-17.14213 -22.17255,-17.14213 z m 0,6.63023 c 9.7217,0 16.45111,4.14478 16.45111,10.5119 0,6.36658 -3.93382,5.0265 -3.93382,5.0265 h -27.63456 c 0,-4.80489 3.20385,-15.5384 15.11727,-15.5384 z"
       id="path154"
       inkscape:connector-curvature="0"
       sodipodi:nodetypes="ssssccscsssssccs" />
    <path
       style="fill:#000000;fill-opacity:1;stroke:none;stroke-width:0.66758841px;stroke-linecap:butt;stroke-linejoin:miter;stroke-opacity:1"
       d="m 212.42967,246.0215 6.79509,-6.63155 v 6.63155 c 0,0 4.1767,-6.63155 13.59019,-6.63155 9.41349,0 21.10055,6.38425 21.10055,18.4779 v 35.40601 h -7.39114 v -35.40601 c 0,0 -0.11934,-11.84635 -13.70941,-11.84635 -13.59019,0 -13.59019,18.52222 -13.59019,18.52222 v 28.73014 h -6.79509 z"
       id="path158"
       inkscape:connector-curvature="0"
       sodipodi:nodetypes="cccsscccscccc" />
    <path
       style="fill:#000000;fill-opacity:1;stroke:none;stroke-width:0.66758841px;stroke-linecap:butt;stroke-linejoin:miter;stroke-opacity:1"
       d="m 280.72011,239.39061 c -12.89819,0 -18.14355,11.58369 -18.14355,11.58369 l 3.47617,3.81384 c 0,0 4.64624,-7.41223 12.39211,-8.7673 4.61198,-0.80683 10.12074,2.671 10.12074,7.64467 0,5.56354 1.45882,7.58 -13.68555,9.86256 -10.88373,1.64042 -15.59318,7.26262 -15.59318,15.43932 0,8.17671 4.28669,14.30619 15.59318,14.30619 11.30648,0 13.68555,-7.46471 13.68555,-7.46471 v 7.46471 h 6.55592 V 251.5845 c 0,0 -1.5032,-12.19389 -14.40139,-12.19389 z m 7.84547,25.64087 v 12.60073 c 0,0 -2.71804,11.1277 -13.68555,10.95913 -10.96753,-0.16855 -9.63313,-7.34797 -9.63313,-9.62395 0,-2.276 -0.32463,-8.52707 9.63313,-8.94859 12.04395,-0.71946 13.68555,-4.98732 13.68555,-4.98732 z"
       id="path160"
       inkscape:connector-curvature="0"
       sodipodi:nodetypes="scccscssccccscccscc" />
    <path
       style="fill:none;stroke:#000000;stroke-width:0.26458332px;stroke-linecap:butt;stroke-linejoin:miter;stroke-opacity:1"
       d="m 115.65928,182.64492 -7.75521,10.18596"
       id="path820"
       inkscape:connector-curvature="0" />
  </g>
</svg>
