<?xml version="1.0" encoding="UTF-8" standalone="no"?>
<!-- Created with Inkscape (http://www.inkscape.org/) -->

<svg
   xmlns:dc="http://purl.org/dc/elements/1.1/"
   xmlns:cc="http://creativecommons.org/ns#"
   xmlns:rdf="http://www.w3.org/1999/02/22-rdf-syntax-ns#"
   xmlns:svg="http://www.w3.org/2000/svg"
   xmlns="http://www.w3.org/2000/svg"
   xmlns:sodipodi="http://sodipodi.sourceforge.net/DTD/sodipodi-0.dtd"
   xmlns:inkscape="http://www.inkscape.org/namespaces/inkscape"
   width="210mm"
   height="210mm"
   viewBox="0 0 210 210"
   version="1.1"
   id="svg8"
   inkscape:version="0.92.3 (2405546, 2018-03-11)"
   sodipodi:docname="cross.svg">
  <defs
     id="defs2" />
  <sodipodi:namedview
     id="base"
     pagecolor="#ffffff"
     bordercolor="#666666"
     borderopacity="1.0"
     inkscape:pageopacity="0.0"
     inkscape:pageshadow="2"
     inkscape:zoom="0.35"
     inkscape:cx="-937.14286"
     inkscape:cy="560"
     inkscape:document-units="mm"
     inkscape:current-layer="layer1"
     showgrid="false"
     inkscape:window-width="1920"
     inkscape:window-height="1052"
     inkscape:window-x="0"
     inkscape:window-y="0"
     inkscape:window-maximized="1" />
  <metadata
     id="metadata5">
    <rdf:RDF>
      <cc:Work
         rdf:about="">
        <dc:format>image/svg+xml</dc:format>
        <dc:type
           rdf:resource="http://purl.org/dc/dcmitype/StillImage" />
        <dc:title />
      </cc:Work>
    </rdf:RDF>
  </metadata>
  <g
     inkscape:label="Capa 1"
     inkscape:groupmode="layer"
     id="layer1"
     transform="translate(0,-87)">
    <path
       d="m 128.99987,192.67859 73.4048,-73.39983 c 3.05983,-3.06466 4.95028,-7.29373 4.95028,-11.96627 0,-9.339984 -7.57147,-16.911453 -16.91158,-16.911453 -4.6724,0 -8.90147,1.890451 -11.96116,4.950279 L 105.07741,168.75599 31.672562,95.351316 c -3.059745,-3.059828 -7.288827,-4.950279 -11.961283,-4.950279 -9.340037,0 -16.911465,7.571469 -16.911465,16.911453 0,4.67254 1.8904227,8.90161 4.9501817,11.96627 l 73.4048273,73.39983 -73.4048273,73.4048 c -3.059759,3.05982 -4.9501817,7.28889 -4.9501817,11.96129 0,9.34011 7.571428,16.91144 16.911465,16.91144 4.672456,0 8.901538,-1.89031 11.961283,-4.95014 l 73.404848,-73.4048 73.4048,73.4048 c 3.05969,3.05983 7.28876,4.95014 11.96116,4.95014 9.34011,0 16.91158,-7.57133 16.91158,-16.91144 0,-4.6724 -1.89045,-8.90147 -4.95028,-11.96129 z"
       style="fill:#ffffff;fill-opacity:1;fill-rule:nonzero;stroke:none;stroke-width:4.87221527"
       id="path70"
       inkscape:connector-curvature="0" />
  </g>
</svg>
