<?xml version="1.0" encoding="UTF-8" standalone="no"?>
<!-- Created with Inkscape (http://www.inkscape.org/) -->

<svg
   xmlns:dc="http://purl.org/dc/elements/1.1/"
   xmlns:cc="http://creativecommons.org/ns#"
   xmlns:rdf="http://www.w3.org/1999/02/22-rdf-syntax-ns#"
   xmlns:svg="http://www.w3.org/2000/svg"
   xmlns="http://www.w3.org/2000/svg"
   xmlns:sodipodi="http://sodipodi.sourceforge.net/DTD/sodipodi-0.dtd"
   xmlns:inkscape="http://www.inkscape.org/namespaces/inkscape"
   width="210mm"
   height="215mm"
   viewBox="0 0 210 215"
   version="1.1"
   id="svg1147"
   inkscape:version="0.92.3 (2405546, 2018-03-11)"
   sodipodi:docname="hand-heart.svg">
  <defs
     id="defs1141" />
  <sodipodi:namedview
     id="base"
     pagecolor="#ffffff"
     bordercolor="#666666"
     borderopacity="1.0"
     inkscape:pageopacity="0.0"
     inkscape:pageshadow="2"
     inkscape:zoom="0.35"
     inkscape:cx="-268.57143"
     inkscape:cy="560"
     inkscape:document-units="mm"
     inkscape:current-layer="layer1"
     showgrid="false"
     inkscape:window-width="1853"
     inkscape:window-height="1025"
     inkscape:window-x="1987"
     inkscape:window-y="27"
     inkscape:window-maximized="1" />
  <metadata
     id="metadata1144">
    <rdf:RDF>
      <cc:Work
         rdf:about="">
        <dc:format>image/svg+xml</dc:format>
        <dc:type
           rdf:resource="http://purl.org/dc/dcmitype/StillImage" />
        <dc:title></dc:title>
      </cc:Work>
    </rdf:RDF>
  </metadata>
  <g
     inkscape:label="Capa 1"
     inkscape:groupmode="layer"
     id="layer1"
     transform="translate(0,-82)">
    <path
       d="M 29.578825,196.78144 H 9.6309416 c -1.8730198,0 -3.3943178,1.5213 -3.3943178,3.3896 0,1.87302 1.521298,3.39432 3.3943178,3.39432 H 29.578825 c 1.720877,0.0943 3.094883,1.46901 3.194605,3.18517 v 0.0135 73.21649 0.005 c 0,1.80173 -1.411874,3.28017 -3.18032,3.38475 H 29.579634 9.6317502 c -0.2466096,-0.0674 -0.5282565,-0.0943 -0.8179891,-0.0943 -1.8730198,0 -3.3943178,1.52601 -3.3943178,3.39445 0,1.8683 1.521298,3.3896 3.3943178,3.3896 0.2856898,0 0.570032,-0.0404 0.8422458,-0.10781 l -0.026952,0.005 H 29.576939 c 5.51462,0 9.978658,-4.46403 9.978658,-9.97394 V 206.7667 c 0,-5.51462 -4.464038,-9.97865 -9.978658,-9.97865 z m 174.367505,33.31601 c -1.73044,-3.00446 -4.54475,-5.22462 -7.88692,-6.16119 l -0.0943,-0.027 c -1.0646,-0.31803 -2.29617,-0.49456 -3.56546,-0.49456 -2.35802,0 -4.56861,0.62797 -6.47492,1.72572 l 0.0674,-0.0269 -38.3079,18.55488 c -5.98533,2.99031 -11.97053,2.99031 -25.13921,2.99031 -12.76454,0 -32.517429,-3.18989 -32.717008,-3.18989 -0.338246,-0.13476 -0.7277,-0.19944 -1.141411,-0.19944 -1.868303,0 -3.389601,1.52129 -3.389601,3.3896 0,1.87302 1.521298,3.39432 3.389601,3.39432 h 0.146888 -0.0046 c 0.799123,0 20.351891,3.3896 33.715431,3.3896 13.96727,0 20.75132,0 28.13424,-3.7889 l 38.50276,-18.75459 c 0.94601,-0.54712 2.08217,-0.87054 3.28975,-0.87054 3.68432,0 6.66506,2.97602 6.66506,6.65563 0,2.46259 -1.3449,4.62089 -3.34203,5.76662 l -0.0269,0.0135 -45.0871,28.1294 c 0,0 -9.57923,5.98533 -31.32413,5.98533 -18.95417,0 -48.081993,-15.95914 -48.48142,-16.15885 -0.199444,-0.19945 -7.38292,-3.7889 -21.345468,-3.7889 -1.87302,0 -3.394318,1.52117 -3.394318,3.3896 0,1.86831 1.521298,3.39432 3.394318,3.39432 11.97067,0 18.355293,2.7906 18.355293,2.7906 1.198011,0.79912 30.924839,17.15715 51.471595,17.15715 23.9412,0 34.51415,-6.98363 34.91344,-7.18321 l 44.88739,-27.92981 c 3.9506,-2.36746 6.56049,-6.63191 6.56049,-11.49996 0,-2.45302 -0.66032,-4.74447 -1.8113,-6.71748 z M 22.794771,268.4005 c 0,-2.7526 -2.229593,-4.98219 -4.986903,-4.98219 -2.757311,0 -4.986904,2.22959 -4.986904,4.98219 0,2.76216 2.229593,4.99175 4.986904,4.99175 2.75731,0 4.986903,-2.22959 4.986903,-4.99175 M 49.531425,216.72919 H 76.06351 c 3.993323,0 10.572947,4.99176 16.358569,9.37965 7.183211,5.38634 14.166841,10.57295 20.152181,10.57295 h 19.9526 c 5.18661,0 7.58264,2.39131 7.78235,2.39131 0.49861,0.31803 1.11715,0.50939 1.77316,0.50939 1.87316,0 3.3896,-1.5213 3.3896,-3.3896 0,-0.71288 -0.21426,-1.36916 -0.58889,-1.91588 l 0.005,0.0135 c -0.39889,-0.39889 -4.38803,-4.19304 -12.36996,-4.19304 h -19.94788 c -3.79375,0 -10.37795,-4.98704 -16.15886,-9.37494 -7.382924,-5.38686 -14.166843,-10.57348 -20.351757,-10.57348 H 49.522396 c -1.488012,0.38002 -2.571881,1.70659 -2.571881,3.28974 0,1.58302 1.083465,2.91417 2.548164,3.28503 l 0.02695,0.005 z m 88.182045,-13.56312 c 0.46088,0.24661 1.008,0.39889 1.59731,0.39889 0.58485,0 1.13198,-0.15228 1.61172,-0.40832 l -0.0135,0.01 c 37.70876,-20.7466 58.25551,-54.66647 58.25551,-76.21152 v -0.43797 c 0,-20.16174 -16.34428,-36.510743 -36.50603,-36.510743 -14.76113,0 -27.47338,8.761647 -33.22572,21.359753 l -0.0943,0.23314 c -0.45683,0.57003 -0.72231,1.30312 -0.72231,2.09187 0,1.87302 1.52117,3.39431 3.3896,3.39431 1.63059,0 2.99018,-1.14545 3.31832,-2.67645 l 0.01,-0.0269 c 4.87289,-10.3068 15.18427,-17.299866 27.13109,-17.299866 16.506,0 29.89326,13.363546 29.92654,29.869406 0,19.54846 -19.75289,50.67301 -53.06903,69.4276 -33.31601,-18.75473 -53.268607,-49.87914 -53.268607,-69.4276 0.0539,-16.487 13.430114,-29.831403 29.926407,-29.831403 4.33103,0 8.44793,0.91232 12.16082,2.571881 l -0.19001,-0.06738 c 0.504,0.308598 1.10772,0.494572 1.76373,0.494572 1.8683,0 3.3896,-1.521169 3.3896,-3.389607 0,-1.578301 -1.07943,-2.904602 -2.53388,-3.285028 l -0.0269,-0.0047 c -4.28832,-1.915873 -9.29422,-3.033028 -14.56169,-3.033028 -20.161749,0 -36.510885,16.349003 -36.510885,36.510753 v 0.0404 c 0,21.54518 20.347175,55.46505 58.255645,76.21165 z m 30.32584,-91.77137 c 4.72547,1.68288 8.39564,5.29119 10.13552,9.8598 l 0.0404,0.10781 c 0.15228,1.74473 1.60687,3.10432 3.38017,3.10432 1.86831,0 3.3896,-1.5213 3.3896,-3.38961 0,-0.71287 -0.21831,-1.37387 -0.58889,-1.92544 l 0.005,0.0135 c -2.38147,-6.64606 -7.52052,-11.78524 -14.00028,-14.11469 l -0.16576,-0.0539 c -0.23313,-0.0539 -0.504,-0.0943 -0.7843,-0.0943 -1.8683,0 -3.3896,1.5213 -3.3896,3.3896 0,1.35973 0.79912,2.53873 1.95859,3.07589 l 0.0135,0.005 z"
       style="fill:#000000;fill-opacity:1;fill-rule:nonzero;stroke:none;stroke-width:4.75400925"
       id="path152"
       inkscape:connector-curvature="0" />
  </g>
</svg>
