<?xml version="1.0" encoding="UTF-8" standalone="no"?>
<svg
   xmlns:dc="http://purl.org/dc/elements/1.1/"
   xmlns:cc="http://creativecommons.org/ns#"
   xmlns:rdf="http://www.w3.org/1999/02/22-rdf-syntax-ns#"
   xmlns:svg="http://www.w3.org/2000/svg"
   xmlns="http://www.w3.org/2000/svg"
   id="svg1147"
   version="1.1"
   viewBox="0 0 210 297"
   height="297mm"
   width="210mm">
  <defs
     id="defs1141" />
  <metadata
     id="metadata1144">
    <rdf:RDF>
      <cc:Work
         rdf:about="">
        <dc:format>image/svg+xml</dc:format>
        <dc:type
           rdf:resource="http://purl.org/dc/dcmitype/StillImage" />
        <dc:title></dc:title>
      </cc:Work>
    </rdf:RDF>
  </metadata>
  <g
     id="layer1">
    <path
       id="path156"
       style="fill:#000000;fill-opacity:1;fill-rule:nonzero;stroke:none;stroke-width:6.06846428"
       d="m 181.84974,192.00146 v 0.25459 c 0,39.09899 -31.69545,70.79461 -70.79461,70.79461 -30.45158,-0.0688 -56.40037,-19.21268 -66.565,-46.1081 l -0.15482,-0.49198 c 3.94441,3.31946 9.08452,5.33416 14.69786,5.33416 12.66476,0 22.92056,-10.26183 22.92056,-22.92057 0,-1.98441 -0.25459,-3.90811 -0.72248,-5.74682 l 0.0344,0.15482 h 2.03894 c 8.63538,-0.0127 16.15435,-4.79453 20.05627,-11.85215 l 0.0688,-0.12041 c 0.25458,0.25459 0.50917,0.50402 0.50917,0.75861 4.13879,4.0963 9.8249,6.62687 16.11186,6.62687 h 0.19955 11.19021 c 2.41532,-0.55218 4.18729,-2.6823 4.18729,-5.22492 0,-2.53677 -1.77197,-4.66671 -4.15685,-5.21287 l -0.0344,-0.006 h -11.20242 c -6.21404,-0.0688 -11.3237,-4.65468 -12.21579,-10.62599 l -0.0122,-0.0688 c -0.12041,-0.50401 -0.20642,-1.1164 -0.25459,-1.74169 v -0.0344 c 0,-6.89368 5.58909,-12.48276 12.48294,-12.48276 h 49.4033 0.0122 c 0.90482,0 1.77816,0.10321 2.62157,0.27351 l -0.086,-0.0172 c 5.57086,1.21961 9.6792,6.10497 9.6792,11.95501 v 0.0172 26.48274 z M 39.23476,190.22329 v 0 L 29.8105,174.68202 c -0.95815,-1.72346 -1.53441,-3.79286 -1.53441,-5.98955 0,-0.13761 0,-0.26146 0.012,-0.38876 v 0.0124 c 0.12041,-6.80286 5.65583,-12.2705 12.47674,-12.2705 4.35726,0 8.18641,2.22714 10.41957,5.60732 l 0.0344,0.0344 18.07804,30.56063 c 1.79021,2.14216 2.87032,4.92767 2.87032,7.96794 0,6.89386 -5.58289,12.47675 -12.47674,12.47675 -5.17039,0 -9.60643,-3.14349 -11.49968,-7.63405 l -0.0344,-0.0688 -8.6598,-14.51587 c -0.086,-0.10321 -0.15482,-0.17546 -0.25459,-0.25458 z m 19.35236,-60.86668 c 1.85093,-1.14049 4.07807,-1.80844 6.47516,-1.80844 4.44808,0 8.35619,2.32433 10.55907,5.83181 l 0.0344,0.0516 0.25459,0.25458 18.07787,30.30587 c 0.83773,1.63247 1.32971,3.56218 1.32971,5.61334 0,6.88783 -5.58909,12.47675 -12.47675,12.47675 -4.22979,0 -7.96192,-2.09967 -10.21933,-5.31592 l -0.0172,-0.0344 -18.07805,-30.30587 c -1.14048,-1.8449 -1.80861,-4.07204 -1.80861,-6.46913 0,-4.44825 2.32433,-8.35636 5.83181,-10.55907 z M 48.40426,67.470544 c -0.83774,-1.632464 -1.32971,-3.568371 -1.32971,-5.613339 0,-6.893852 5.58908,-12.476916 12.48294,-12.476916 4.22359,0 7.95572,2.099841 10.21314,5.316089 l 0.0172,0.0344 52.72276,87.865308 h -2.29388 -0.0172 c -8.43515,0 -15.81427,4.55731 -19.79531,11.34795 l -0.0516,0.10321 -15.52923,-25.97304 z m 94.73473,-25.724308 c 0,-6.893852 5.58909,-12.476744 12.48294,-12.476744 6.88766,0 12.47675,5.582892 12.47675,12.476744 V 142.59798 H 143.13899 Z M 178.79743,144.63091 V 41.746236 c 0,-12.725656 -10.32255,-23.048028 -23.04803,-23.048028 -12.72566,0 -23.04803,10.322372 -23.04803,23.048028 V 139.02978 L 78.71013,49.131548 C 74.61401,42.39561 67.31367,37.959572 58.97554,37.959572 c -12.71344,0 -23.01775,10.304138 -23.01775,23.017581 0,4.375488 1.21962,8.459574 3.33769,11.942796 l -0.0688,-0.103211 26.48893,44.311872 c -0.30275,-0.0122 -0.65023,-0.0172 -1.00803,-0.0172 -4.2236,0 -8.1742,1.14737 -11.57863,3.13746 l 0.12041,-0.0516 c -6.71168,4.07187 -11.12347,11.34795 -11.12347,19.64961 0,1.97238 0.24943,3.88988 0.7156,5.72258 l -0.0344,-0.17202 c -0.70356,-0.086 -1.52237,-0.12042 -2.36062,-0.12042 -4.30255,0 -8.3199,1.17662 -11.74859,3.23448 l 0.10321,-0.0516 c -6.754,4.07187 -11.20827,11.36619 -11.20827,19.70431 0,4.39355 1.23166,8.49587 3.36797,11.9791 l -0.0516,-0.10322 8.65981,14.51569 c 1.46216,43.85688 37.36951,78.85373 81.45087,78.85373 22.49585,0 42.86158,-9.1148 57.59591,-23.84293 14.78868,-14.67963 23.94614,-35.00906 23.94614,-57.48667 v -0.086 -26.48274 c -0.0688,-9.29662 -5.63157,-17.27059 -13.61775,-20.82675 l -0.13762,-0.0688 z" />
  </g>
</svg>
