<?xml version="1.0" encoding="UTF-8" standalone="no"?>
<svg
   xmlns:dc="http://purl.org/dc/elements/1.1/"
   xmlns:cc="http://creativecommons.org/ns#"
   xmlns:rdf="http://www.w3.org/1999/02/22-rdf-syntax-ns#"
   xmlns:svg="http://www.w3.org/2000/svg"
   xmlns="http://www.w3.org/2000/svg"
   id="svg1147"
   version="1.1"
   viewBox="0 0 210 297"
   height="297mm"
   width="210mm">
  <defs
     id="defs1141" />
  <metadata
     id="metadata1144">
    <rdf:RDF>
      <cc:Work
         rdf:about="">
        <dc:format>image/svg+xml</dc:format>
        <dc:type
           rdf:resource="http://purl.org/dc/dcmitype/StillImage" />
        <dc:title></dc:title>
      </cc:Work>
    </rdf:RDF>
  </metadata>
  <g
     id="layer1">
    <path
       id="path192"
       style="fill:#000000;fill-opacity:1;fill-rule:nonzero;stroke:none;stroke-width:4.26137972"
       d="m 119.95263,155.60345 c 0.19605,-0.23796 0.31105,-0.55445 0.31105,-0.88663 0,-0.43486 -0.18748,-0.81778 -0.48584,-1.0787 l -3.93325,-3.22161 c -0.22589,-0.14857 -0.50287,-0.24279 -0.79689,-0.24279 -0.48584,0 -0.90765,0.23072 -1.16338,0.59672 l -0.009,0.004 -0.53693,0.53754 c -3.75429,4.29112 -8.04123,13.58956 -8.3992,20.38645 v 0.8951 c 0,0.78879 0.63925,1.43178 1.42757,1.43178 l 5.00712,0.17878 h 0.009 c 0.72876,0 1.33382,-0.546 1.41904,-1.24854 v -0.004 l 0.17902,-0.71631 c 0.72863,-6.07249 3.03837,-11.5015 6.4986,-15.99725 l -0.0592,0.0846 z m 40.41492,-37.37651 c -4.46592,-3.75431 -12.15771,-4.47015 -18.95461,2.32675 -2.68467,2.85934 -6.7969,6.97579 -10.3722,10.90477 V 76.559177 c 0.0217,-0.251254 0.0302,-0.545994 0.0302,-0.844357 0,-6.123583 -4.96025,-11.088138 -11.08385,-11.088138 -1.16337,0 -2.27983,0.178777 -3.32814,0.510963 l 0.0725,-0.02416 V 62.79108 62.646126 c 0,-3.183311 -1.4574,-6.02139 -3.73723,-7.892142 l -0.0169,-0.01208 c -2.00717,-1.538324 -4.55974,-2.475815 -7.32536,-2.501423 h -0.004 c -0.15341,-0.0085 -0.32808,-0.01208 -0.5071,-0.01208 -3.38779,0 -6.477289,1.295527 -8.804009,3.413426 l 0.0133,-0.0086 c -1.77275,1.777015 -2.86366,4.227342 -2.86366,6.933271 v 0.229511 -0.01208 2.326754 c -0.9631,-0.323731 -2.06251,-0.519419 -3.21308,-0.537538 h -0.72018 c -5.81677,0.375673 -10.3935,5.186093 -10.3935,11.062529 0,0.259709 0.009,0.515795 0.0254,0.775504 v -0.03624 6.43463 c -1.01419,-0.32373 -2.17759,-0.519418 -3.39209,-0.532706 h -0.004 c -6.081005,0 -12.519947,4.291243 -12.519947,11.620844 v 12.877834 c -0.179019,14.66343 -0.357916,49.35962 0.179018,58.83696 0.357916,9.29832 6.08099,16.4489 15.737269,20.20743 v 43.8155 0.009 c 0,0.78879 0.64348,1.4319 1.43182,1.4319 0.0592,0 0.12358,-0.009 0.18325,-0.0121 h -0.004 4.82388 c 0.79265,0 1.43181,-0.64384 1.43181,-1.42756 v -42.03014 c 2.01564,0.31165 4.36793,0.50251 6.75856,0.53754 h 0.0386 0.89485 c 0.78831,0 1.43182,-0.64384 1.43182,-1.43178 v -5.00285 c 0,-0.79242 -0.64347,-1.43191 -1.43182,-1.43191 h -0.89485 c -13.41056,0 -22.171959,-5.72302 -22.708893,-14.84232 -0.179018,-8.2288 0,-38.4505 0,-56.69345 V 94.078441 c 0.183246,-2.215864 2.028414,-3.950239 4.278423,-3.950239 0.1278,0 0.25995,0.0041 0.38776,0.01208 h -0.0169 c 0.0979,-0.01208 0.21731,-0.01208 0.33666,-0.01208 0.81392,0 1.56819,0.272997 2.17331,0.73685 l -0.0133,-0.0041 c 0.56254,0.672828 0.912,1.551129 0.912,2.514227 0,0.123211 -0.004,0.237967 -0.0169,0.362386 v -0.01208 c -0.004,0.02416 -0.004,0.0604 -0.004,0.08456 0,0.03624 0.004,0.0604 0.004,0.09664 v -0.0086 42.025675 c 0,0.78879 0.64348,1.43178 1.43182,1.43178 h 5.00286 c 0.78831,0 1.43182,-0.64383 1.43182,-1.43178 V 76.375206 c 0,-2.863687 1.6108,-4.116573 3.21735,-4.116573 0.71595,0 3.04262,0.357553 3.04262,3.937555 v 55.257322 0.009 c 0,0.79241 0.63925,1.4319 1.43182,1.4319 0.064,0 0.11959,-0.004 0.18325,-0.009 h -0.004 4.82815 c 0.784079,0 1.431819,-0.64384 1.431819,-1.43178 V 76.375206 c 0.0169,-0.212599 0.0302,-0.465061 0.0302,-0.716314 0,-0.251254 -0.0133,-0.502508 -0.0302,-0.750137 v 0.03624 -12.340902 c 0,-2.147736 2.50143,-2.680442 4.11223,-2.680442 1.00997,0 1.94745,0.337018 2.68893,0.898715 l -0.009,-0.0085 c 0.54551,0.430031 0.8992,1.090779 0.8992,1.836689 0,0.04832 0,0.09664 -0.004,0.136498 v -0.0042 67.419207 c 0,0.78879 0.64348,1.4319 1.42757,1.4319 h 5.01133 c 0.78831,0 1.42757,-0.64384 1.42757,-1.4319 V 76.376656 c 0,-3.57964 2.14773,-3.937556 3.04262,-3.937556 0.71595,0 3.2216,0.357554 3.2216,3.937556 v 63.306974 l -2.14774,2.32253 -0.53693,0.71632 c -0.22589,0.25125 -0.36226,0.58827 -0.36226,0.95065 0,0.0483 0,0.0846 0.004,0.12805 v -0.004 c 0.0133,0.34547 0.14484,0.65229 0.35792,0.89026 l 3.5753,3.0427 c 0.23869,0.2126 0.54974,0.34548 0.89485,0.35756 h 0.35792 c 1.07386,0 1.07386,0 9.11934,-8.58249 l 3.03837,-3.4005 c 3.57957,-3.75431 7.15486,-7.68752 9.83953,-10.19329 3.21735,-3.21725 6.43895,-3.21725 8.22873,-1.7897 0.71595,0.53754 2.14347,2.32663 0,5.54824 -1.78978,2.50142 -3.40058,4.64493 -4.83241,6.61365 l -0.17902,0.17877 c -4.2912,5.90205 -7.50854,10.19329 -8.94036,15.55828 -0.35369,1.6108 -0.60941,3.51139 -0.71161,5.45462 l -0.004,0.0846 c -0.53694,6.25996 -1.07387,14.12649 -9.65628,19.31258 -2.68042,1.7897 -10.90913,2.50566 -15.73729,2.50566 h -0.89555 c -0.78831,0 -1.43182,0.64383 -1.43182,1.43178 v 5.00719 c 0,0.78396 0.64348,1.42756 1.43182,1.42756 h 0.89485 c 1.9645,0 4.11224,-0.17878 6.25998,-0.35755 v 42.74585 c 0,0.78396 0.63924,1.42756 1.43181,1.42756 h 5.00713 c 0.78408,0 1.43182,-0.64384 1.43182,-1.42756 v -43.63672 c 2.16478,-0.51579 4.07388,-1.25276 5.84236,-2.20728 l -0.12358,0.0604 v -0.17877 c 11.98299,-7.1501 12.87789,-18.23824 13.41482,-25.57207 0.0979,-1.52564 0.28979,-2.94039 0.571,-4.3125 l -0.0338,0.20052 c 0.89062,-3.75854 3.57529,-7.15481 7.50854,-12.51992 l 0.71596,-1.07387 c 0.7116,-0.89026 1.42756,-1.96449 2.14347,-2.85946 0.71595,-0.89509 1.43183,-2.14774 2.14773,-3.2216 4.64917,-6.61365 2.68041,-13.05251 -1.25284,-16.09087 z" />
  </g>
</svg>
